<svg xmlns="http://www.w3.org/2000/svg" viewBox="0 0 186.13 212.84"><defs><style>.cls-1{isolation:isolate;}.cls-2,.cls-4{fill:#fffbf0;}.cls-3{fill:#edc53c;}.cls-4{mix-blend-mode:soft-light;}.cls-5,.cls-6{fill:#e89d13;}.cls-5{mix-blend-mode:multiply;}.cls-7{fill:#ec008c;}.cls-8{fill:#2d1e00;}.cls-9{fill:none;stroke:#2d1e00;stroke-linecap:round;stroke-linejoin:round;stroke-width:3px;}</style></defs><title>bubule</title><g class="cls-1"><g id="Calque_1" data-name="Calque 1"><path class="cls-2" d="M193.17,76.68a18.54,18.54,0,1,1-18.55,18.53A18.54,18.54,0,0,1,193.17,76.68Zm10.45,18.54H193.16l7-7.79a10.47,10.47,0,1,0,3.47,7.79Z" transform="translate(-34.45 -21.29)"/><path class="cls-2" d="M137.24,76.65a18.54,18.54,0,1,1-18.55,18.52A18.53,18.53,0,0,1,137.24,76.65Zm10.45,18.54H137.23l7-7.79a10.47,10.47,0,1,0,3.47,7.8Z" transform="translate(-34.45 -21.29)"/><path class="cls-3" d="M160.19,32.57A29,29,0,0,1,156.31,47l-.07,1.41c-1.24-.05-2.46-.09-3.71-.09a92.62,92.62,0,0,0-17.35,1.64C105.11,55.65,85,72.53,76.5,94.06a68.57,68.57,0,0,0-3.85,35.09c.23,1.55.51,3.09.86,4.63l-.1,0c-5.46,3.45-13,6.14-18,2-3.57-3-4.08-8.49-2.45-12.85s4.93-7.83,8.18-11.18c-4,1.45-8,2.9-12.2,3s-8.68-1.43-11.08-4.87c-3.2-4.58-1.87-10.87.31-16A57.41,57.41,0,0,1,46,80.76,60,60,0,0,1,81,59.08c-4-.64-8.11-1.31-11.79-3.07s-7-4.78-8-8.7c-1.6-5.87,2.08-12,6.83-15.83C76.65,24.54,88.38,23,99.46,22.8a94.53,94.53,0,0,1,23.17,2.27c8.74,2.1,16.86,5.84,23.27,12.07a21.63,21.63,0,0,1,6.49-8.53c1.56-1.25,3.7-2.31,5.5-1.43S160.21,30.5,160.19,32.57Z" transform="translate(-34.45 -21.29)"/><path class="cls-4" d="M160.19,32.57A29,29,0,0,1,156.31,47l-.07,1.41c-1.24-.05-2.46-.09-3.71-.09a68,68,0,0,0-.47-7.68,19.24,19.24,0,0,0-9,3.88c-3.15-4.31-6.33-8.67-10.25-12.31a45.1,45.1,0,0,0-10.22-7.11c8.74,2.1,16.86,5.84,23.27,12.07a21.63,21.63,0,0,1,6.49-8.53c1.56-1.25,3.7-2.31,5.5-1.43S160.21,30.5,160.19,32.57Z" transform="translate(-34.45 -21.29)"/><path class="cls-5" d="M72.65,129.15c.23,1.55.51,3.09.86,4.63l-.1,0c-5.46,3.45-13,6.14-18,2-3.57-3-4.08-8.49-2.45-12.85s4.93-7.83,8.18-11.18c-4,1.45-8,2.9-12.2,3s-8.68-1.43-11.08-4.87c-3.2-4.58-1.87-10.87.31-16A57.41,57.41,0,0,1,46,80.76c-.14,4.51,1.2,9.09,4.37,12.24,3.71,3.71,9.38,4.9,14.6,4.34A42.84,42.84,0,0,0,76.5,94.06,68.57,68.57,0,0,0,72.65,129.15Z" transform="translate(-34.45 -21.29)"/><path class="cls-3" d="M176.4,213.61c-3.26,6-12.54-.43-20.15-7.32a147.2,147.2,0,0,1-11.13-11.36h0a93.66,93.66,0,0,1,16,1.35C171.59,198.15,182.32,202.71,176.4,213.61Z" transform="translate(-34.45 -21.29)"/><path class="cls-3" d="M146.58,213.58c0,10.89-1.91,21.85-10.36,18.4s-5.16-14.14-.3-23.13a104.06,104.06,0,0,1,9.2-13.92A137.15,137.15,0,0,1,146.58,213.58Z" transform="translate(-34.45 -21.29)"/><path class="cls-5" d="M135.92,208.85a104.06,104.06,0,0,1,9.2-13.92,137.15,137.15,0,0,1,1.46,18.65A27.46,27.46,0,0,0,135.92,208.85Z" transform="translate(-34.45 -21.29)"/><path class="cls-5" d="M161.12,196.27a43.82,43.82,0,0,0-4.87,10,147.2,147.2,0,0,1-11.13-11.36h0A93.66,93.66,0,0,1,161.12,196.27Z" transform="translate(-34.45 -21.29)"/><path class="cls-3" d="M109.17,137.66a70.07,70.07,0,0,1-.7,8.91A28.88,28.88,0,0,1,104,158.92c-1.19,1.74-2.85,3.41-5,3.52s-4-1.44-5-3.3A16.62,16.62,0,0,1,92.78,153c-.17-2.11,0-4.72-.59-6.75-.72-2.5-.82-2.37-2.82-1.65-3,1.08-5.82,4-9.12,1.06a7,7,0,0,1-1.92-3.08A16.26,16.26,0,0,1,80.06,129a21,21,0,0,1,4.06-4.81A27,27,0,0,1,90.68,120c3.14-1.44,6.75-2.38,10-1.34,3.57,1.11,6.14,4.38,7.34,7.92S109.27,133.91,109.17,137.66Z" transform="translate(-34.45 -21.29)"/><path class="cls-5" d="M109.17,137.66a70.07,70.07,0,0,1-.7,8.91c-.14-.52-.3-1-.46-1.54a33.66,33.66,0,0,0-16.7-19.28c-1.86-.92-4.59-1.16-7.19-1.55A27,27,0,0,1,90.68,120c3.14-1.44,6.75-2.38,10-1.34,3.57,1.11,6.14,4.38,7.34,7.92S109.27,133.91,109.17,137.66Z" transform="translate(-34.45 -21.29)"/><path class="cls-3" d="M131.54,138.07a200.28,200.28,0,0,0,25.57,2v.25a4.54,4.54,0,0,1,2.19,5.44,6.5,6.5,0,0,1-4.62,4.05,12,12,0,0,1-6.33-.36,4,4,0,0,1,1,4.17,6.06,6.06,0,0,1-3,3.32,8.42,8.42,0,0,1-10.58-2.7l-.38.08Z" transform="translate(-34.45 -21.29)"/><path class="cls-3" d="M135.43,154.34l9.69,40.58a43.11,43.11,0,0,1-19.6-2.62c-6.46-7-10.34-17.37-11.72-26.82-1-6.51-.82-13.46,2.2-19.32a14.85,14.85,0,0,1,15.54-8.09Z" transform="translate(-34.45 -21.29)"/><path class="cls-6" d="M156.24,48.38a90.72,90.72,0,0,0-14.1.5q-3.46.39-7,1a91.17,91.17,0,0,0-29.92,11C80.33,75.83,68.7,101.61,72.65,129.15c.23,1.55.51,3.09.86,4.63,5.94,26.77,29.34,50.55,52,58.52-6.46-7-10.34-17.37-11.72-26.82l0-.27c-.92-6.43-.74-13.26,2.24-19.05a14.85,14.85,0,0,1,15.54-8.09,200.28,200.28,0,0,0,25.57,2c16.93.28,38.28-1.62,51-11.13a26.92,26.92,0,0,0,8.53-10.32,26.61,26.61,0,0,0,2.36-9.9C220.93,73.83,192.27,50,156.24,48.38Zm-47.07,89.28c-.19,7.26-.93,14.88-4.92,20.93l-.21.33c-1.19,1.74-2.85,3.41-5,3.52s-4-1.44-5-3.3A16.62,16.62,0,0,1,92.78,153c-.17-2.1,0-4.68-.58-6.7,0,0,0,0,0-.05-.53-1.83-.72-2.25-1.57-2.06a12.45,12.45,0,0,0-1.25.41c-3,1.08-5.82,4-9.12,1.06a7,7,0,0,1-1.92-3.08A16.26,16.26,0,0,1,80.06,129a21,21,0,0,1,2.1-2.86A26.06,26.06,0,0,1,90.68,120c3.14-1.44,6.75-2.38,10-1.34,3.57,1.11,6.14,4.38,7.34,7.92S109.27,133.91,109.17,137.66Zm28.05-23.94A18.54,18.54,0,1,1,155.76,95.2,18.54,18.54,0,0,1,137.22,113.72Zm37.4-18.51a18.54,18.54,0,0,1,18.55-18.53,18.28,18.28,0,0,1,8,1.81,18.56,18.56,0,0,1,10.54,16.74c0,.55,0,1.11-.08,1.65a18.53,18.53,0,0,1-37-1.67Z" transform="translate(-34.45 -21.29)"/><ellipse class="cls-7" cx="87.97" cy="100.43" rx="8.97" ry="7.84"/><path class="cls-7" d="M217.67,116a27.82,27.82,0,0,1-1,2.69A26.92,26.92,0,0,1,208.09,129a7.9,7.9,0,0,1-5.4-7.19c0-4.34,4-7.84,9-7.84A9.65,9.65,0,0,1,217.67,116Z" transform="translate(-34.45 -21.29)"/><path class="cls-4" d="M219,108.74a26.83,26.83,0,0,1-2.36,9.9,85,85,0,0,0-5-21.76,68.2,68.2,0,0,0-10.46-18.39c-17.58-22-45.11-28-59-29.61a90.72,90.72,0,0,1,14.1-.5C192.27,50,220.93,73.83,219,108.74Z" transform="translate(-34.45 -21.29)"/><path class="cls-5" d="M125.52,192.3c-22.67-8-46.07-31.75-52-58.52-.35-1.54-.63-3.08-.86-4.63-4-27.54,7.68-53.32,32.61-68.19A95.7,95.7,0,0,0,90.51,82.61a88.47,88.47,0,0,0-8.3,26.29,52,52,0,0,0,0,17.25,21,21,0,0,0-2.1,2.86,16.26,16.26,0,0,0-1.73,13.58,7,7,0,0,0,1.92,3.08c3.3,3,6.09,0,9.12-1.06a12.45,12.45,0,0,1,1.25-.41l.15.22c.46.64.94,1.27,1.43,1.89.58,2,.41,4.6.58,6.7a16.62,16.62,0,0,0,1.35,6.13c.94,1.86,2.86,3.42,5,3.3s3.77-1.78,5-3.52l.21-.33a76.94,76.94,0,0,0,9.51,6.62l0,.27C115.18,174.93,119.06,185.27,125.52,192.3Z" transform="translate(-34.45 -21.29)"/><path class="cls-8" d="M193.16,95.22h10.46a10.46,10.46,0,1,1-3.47-7.79Z" transform="translate(-34.45 -21.29)"/><path class="cls-8" d="M137.23,95.18h10.46a10.44,10.44,0,1,1-3.47-7.8Z" transform="translate(-34.45 -21.29)"/><path class="cls-9" d="M131.54,138.07a200.28,200.28,0,0,0,25.57,2c25.26.41,60.34-4,61.87-31.35,2-34.91-26.71-58.76-62.74-60.36a92.08,92.08,0,0,0-21.06,1.55C90,58.51,67.35,92.26,72.65,129.15c.23,1.55.51,3.09.86,4.63,5.94,26.77,29.34,50.55,52,58.52a43.11,43.11,0,0,0,19.6,2.62l-9.69-40.58Z" transform="translate(-34.45 -21.29)"/><path class="cls-9" d="M145.12,194.93s25.42,29.48,31.28,18.68c10.49-19.32-31.28-18.69-31.28-18.69" transform="translate(-34.45 -21.29)"/><path class="cls-9" d="M145.12,194.93s-24.61,30.63-8.9,37C151.75,238.32,145.27,195.89,145.12,194.93Z" transform="translate(-34.45 -21.29)"/><line class="cls-9" x1="110.67" y1="173.63" x2="110.67" y2="173.65"/><path class="cls-9" d="M80.25,145.67a7,7,0,0,1-1.92-3.08A16.26,16.26,0,0,1,80.06,129a24.07,24.07,0,0,1,10.62-9c3.14-1.44,6.75-2.38,10-1.34,3.57,1.11,6.14,4.38,7.34,7.92s1.2,7.37,1.1,11.12c-.19,7.39-1,15.14-5.13,21.26-1.19,1.74-2.85,3.41-5,3.52s-4-1.44-5-3.3A16.62,16.62,0,0,1,92.78,153c-.17-2.11,0-4.72-.59-6.75-.72-2.5-.82-2.37-2.82-1.65C86.34,145.69,83.55,148.63,80.25,145.67Z" transform="translate(-34.45 -21.29)"/><path class="cls-9" d="M156.31,47a29,29,0,0,0,3.88-14.4c0-2.07-.43-4.49-2.3-5.39s-3.94.18-5.5,1.43a21.63,21.63,0,0,0-6.49,8.53C134,25.54,116.1,22.57,99.46,22.8,88.38,23,76.65,24.54,68,31.48c-4.75,3.81-8.43,10-6.83,15.83,1.08,3.92,4.36,7,8,8.7S77,58.44,81,59.08A60.06,60.06,0,0,0,38.17,93.87c-2.18,5.13-3.51,11.42-.31,16,2.4,3.44,6.87,5,11.08,4.87s8.24-1.54,12.2-3c-3.25,3.35-6.55,6.83-8.18,11.18s-1.12,9.88,2.45,12.85c5,4.16,12.54,1.47,18-2" transform="translate(-34.45 -21.29)"/><path class="cls-9" d="M135.81,154.26a8.42,8.42,0,0,0,10.58,2.7,6.06,6.06,0,0,0,3-3.32,4,4,0,0,0-1-4.17,12,12,0,0,0,6.33.36,6.5,6.5,0,0,0,4.62-4.05,4.54,4.54,0,0,0-2.19-5.44" transform="translate(-34.45 -21.29)"/><path class="cls-9" d="M131.54,138.07A14.85,14.85,0,0,0,116,146.16c-3,5.86-3.16,12.81-2.2,19.32,1.38,9.45,5.26,19.79,11.72,26.82v0" transform="translate(-34.45 -21.29)"/><path class="cls-9" d="M155.76,95.2a18.54,18.54,0,1,1-18.52-18.55A18.53,18.53,0,0,1,155.76,95.2Z" transform="translate(-34.45 -21.29)"/><path class="cls-9" d="M211.69,95.23a18.54,18.54,0,1,1-18.52-18.55A18.54,18.54,0,0,1,211.69,95.23Z" transform="translate(-34.45 -21.29)"/><path class="cls-9" d="M177.75,115.31a16.51,16.51,0,0,1-24.91.29" transform="translate(-34.45 -21.29)"/></g></g></svg>