<svg xmlns="http://www.w3.org/2000/svg" viewBox="0 0 187.51 187.11"><defs><style>.cls-1{isolation:isolate;}.cls-2,.cls-3{fill:#e9afb7;}.cls-12,.cls-3,.cls-7{mix-blend-mode:multiply;}.cls-12,.cls-4,.cls-9{fill:#fffbf0;}.cls-11,.cls-4{mix-blend-mode:soft-light;}.cls-5{fill:#ec008c;}.cls-10,.cls-6{fill:none;stroke-linecap:round;stroke-linejoin:round;stroke-width:3px;}.cls-6{stroke:#e69698;}.cls-7{fill:#a7a9ac;opacity:0.57;}.cls-8{fill:#2d1e00;}.cls-10{stroke:#2d1e00;}</style></defs><title>Marinette</title><g class="cls-1"><g id="Calque_1" data-name="Calque 1"><path class="cls-2" d="M139.19,171.33a17.76,17.76,0,0,0,14-12.21,17.34,17.34,0,0,0,.55-8.29l-1.42-8.06-35.15,6.1,1.42,8a17.27,17.27,0,0,0,3.34,7.62A17.84,17.84,0,0,0,139.19,171.33Zm67.38-91.9A13,13,0,0,1,217.51,100l-24.84,34.18A12.88,12.88,0,0,0,191,146.08l14.26,39.7a13,13,0,0,1-16.28,16.69l-40.38-12.91a13.17,13.17,0,0,0-12,2.07L103,217.38a13.05,13.05,0,0,1-21-10.22L81.87,165a13,13,0,0,0-5.68-10.66l-35-23.79a12.92,12.92,0,0,1,3.3-23L84.77,94.4a13,13,0,0,0,8.45-8.65l12-40.45a13.08,13.08,0,0,1,23-4l25,34a13,13,0,0,0,10.89,5.3Zm-25.55,35a18.84,18.84,0,1,0-15.31,21.69A18.83,18.83,0,0,0,181,114.45Zm-63.45,11a18.85,18.85,0,1,0-15.31,21.69A18.83,18.83,0,0,0,117.57,125.46Z" transform="translate(-33.99 -34.49)"/><path class="cls-3" d="M105.17,45.3l-12,40.44a13,13,0,0,1-8.45,8.66L44.46,107.54a12.93,12.93,0,0,0-3.3,23l35,23.78A13,13,0,0,1,81.87,165L82,207.15a13,13,0,0,0,19.1,11.44,13,13,0,0,1-11.24-12.8l-.12-42.16A13,13,0,0,0,84.05,153L49,129.18a12.92,12.92,0,0,1,3.3-23L92.63,93a13,13,0,0,0,8.45-8.66l12-40.45a12.68,12.68,0,0,1,6.46-7.82A13,13,0,0,0,105.17,45.3Z" transform="translate(-33.99 -34.49)"/><path class="cls-4" d="M111.61,37.48a12.76,12.76,0,0,1,8.75,5.18l25,34A13.08,13.08,0,0,0,156.29,82l42.41-1.21a13,13,0,0,1,11,20.53L184.81,135.5a12.88,12.88,0,0,0-1.71,11.94l14.26,39.7A12.9,12.9,0,0,1,191.15,203a13,13,0,0,0,14.07-17.19L191,146.07a12.88,12.88,0,0,1,1.71-11.94L217.51,100a13,13,0,0,0-10.94-20.53l-42.42,1.2a13,13,0,0,1-10.89-5.3l-25-34A13.06,13.06,0,0,0,111.61,37.48Z" transform="translate(-33.99 -34.49)"/><ellipse class="cls-5" cx="93.79" cy="159.63" rx="9.36" ry="7.91" transform="translate(-59.11 -16.76) rotate(-9.53)"/><ellipse class="cls-5" cx="177.92" cy="145.03" rx="9.36" ry="7.91" transform="translate(-55.54 -3.04) rotate(-9.53)"/><line class="cls-6" x1="77.07" y1="142.77" x2="60.07" y2="174.93"/><line class="cls-6" x1="48.89" y1="92.85" x2="12.85" y2="86.72"/><line class="cls-6" x1="87.96" y1="50.78" x2="82.69" y2="14.84"/><line class="cls-6" x1="140.3" y1="74.7" x2="173.08" y2="58.61"/><line class="cls-6" x1="133.59" y1="131.55" x2="159.13" y2="157.55"/><path class="cls-5" d="M153.15,159.12a17.86,17.86,0,0,1-31.26,5.42,17.88,17.88,0,0,1,31.26-5.42Z" transform="translate(-33.99 -34.49)"/><path class="cls-7" d="M148.4,154.79a14.69,14.69,0,0,0-8.51,3.12A20,20,0,0,0,133,169.13a13.44,13.44,0,0,0-.27,2.15,17.89,17.89,0,0,1-10.86-6.74,17.86,17.86,0,0,1,26.51-9.75Z" transform="translate(-33.99 -34.49)"/><path class="cls-8" d="M152.28,142.77l1.42,8.06a17.34,17.34,0,0,1-.55,8.29,17.87,17.87,0,0,0-31.26,5.42,17.27,17.27,0,0,1-3.34-7.62l-1.42-8Z" transform="translate(-33.99 -34.49)"/><path class="cls-9" d="M159.22,99.22a18.74,18.74,0,1,1-15.33,21.67A18.83,18.83,0,0,1,159.22,99.22Zm13.72,16.64-10.48,1.81,5.64-9a10.75,10.75,0,0,0-7.47-1.44,10.58,10.58,0,1,0,12.31,8.6Z" transform="translate(-33.99 -34.49)"/><path class="cls-9" d="M95.77,110.22A18.75,18.75,0,1,1,80.43,131.9,18.83,18.83,0,0,1,95.77,110.22Zm13.71,16.64L99,128.68l5.63-9a10.78,10.78,0,0,0-7.46-1.45,10.58,10.58,0,1,0,12.3,8.6Z" transform="translate(-33.99 -34.49)"/><path class="cls-8" d="M162.46,117.67l10.48-1.81a10.64,10.64,0,1,1-12.31-8.6,10.75,10.75,0,0,1,7.47,1.44Z" transform="translate(-33.99 -34.49)"/><path class="cls-8" d="M99,128.68l10.47-1.82a10.64,10.64,0,1,1-12.3-8.6,10.78,10.78,0,0,1,7.46,1.45Z" transform="translate(-33.99 -34.49)"/><path class="cls-10" d="M128.22,41.3l25,34a13,13,0,0,0,10.89,5.3l42.42-1.2A13,13,0,0,1,217.51,100l-24.84,34.18A12.88,12.88,0,0,0,191,146.08l14.26,39.7a13,13,0,0,1-16.28,16.69l-40.38-12.91a13.17,13.17,0,0,0-12,2.07L103,217.38a13.05,13.05,0,0,1-21-10.22L81.87,165a13,13,0,0,0-5.68-10.66l-35-23.79a12.92,12.92,0,0,1,3.3-23L84.77,94.4a13,13,0,0,0,8.45-8.65l12-40.45A13.08,13.08,0,0,1,128.22,41.3Z" transform="translate(-33.99 -34.49)"/><path class="cls-10" d="M117.57,125.46a18.85,18.85,0,1,1-21.8-15.24A18.76,18.76,0,0,1,117.57,125.46Z" transform="translate(-33.99 -34.49)"/><path class="cls-10" d="M181,114.45a18.84,18.84,0,1,1-21.8-15.23A18.73,18.73,0,0,1,181,114.45Z" transform="translate(-33.99 -34.49)"/><path class="cls-10" d="M121.89,164.54a17.27,17.27,0,0,1-3.34-7.62l-1.42-8,35.15-6.1,1.42,8.06a17.34,17.34,0,0,1-.55,8.29" transform="translate(-33.99 -34.49)"/><path class="cls-10" d="M153.15,159.12a17.87,17.87,0,0,1-31.26,5.42,17.87,17.87,0,0,1,31.26-5.42Z" transform="translate(-33.99 -34.49)"/><ellipse class="cls-3" cx="73.53" cy="65.73" rx="1.78" ry="1.77"/><ellipse class="cls-3" cx="64.79" cy="66.74" rx="3.61" ry="3.58"/><ellipse class="cls-3" cx="68.53" cy="58.18" rx="1.55" ry="1.54"/><ellipse class="cls-3" cx="135.86" cy="148.06" rx="1.78" ry="1.77"/><ellipse class="cls-3" cx="127.12" cy="149.06" rx="3.61" ry="3.58"/><ellipse class="cls-3" cx="130.85" cy="140.5" rx="1.55" ry="1.54"/><g class="cls-11"><ellipse class="cls-12" cx="86.49" cy="150.24" rx="1.78" ry="1.77"/><ellipse class="cls-12" cx="85.79" cy="158.95" rx="3.61" ry="3.58"/><ellipse class="cls-12" cx="78.06" cy="153.65" rx="1.55" ry="1.54"/></g><g class="cls-11"><ellipse class="cls-12" cx="145.89" cy="54.7" rx="1.21" ry="1.21"/><ellipse class="cls-12" cx="145.41" cy="60.64" rx="2.46" ry="2.44"/><ellipse class="cls-12" cx="140.14" cy="57.03" rx="1.06" ry="1.05"/></g><g class="cls-11"><ellipse class="cls-12" cx="98.76" cy="35.96" rx="1.21" ry="1.21"/><ellipse class="cls-12" cx="98.28" cy="41.89" rx="2.46" ry="2.44"/><ellipse class="cls-12" cx="93.02" cy="38.28" rx="1.06" ry="1.05"/></g></g></g></svg>