<svg xmlns="http://www.w3.org/2000/svg" viewBox="0 0 203.78 180.99"><defs><style>.cls-1{isolation:isolate;}.cls-2,.cls-6{fill:#fffbf0;}.cls-3{fill:#d636a5;}.cls-4{fill:#edc53c;}.cls-5{fill:#bf3cbf;mix-blend-mode:multiply;}.cls-6{mix-blend-mode:soft-light;}.cls-7{fill:#2d1e00;}.cls-8{fill:none;stroke:#2d1e00;stroke-linecap:round;stroke-linejoin:round;stroke-width:3px;}.cls-9{fill:#ff8de7;}</style></defs><title>Octave</title><g class="cls-1"><g id="Calque_1" data-name="Calque 1"><path class="cls-2" d="M97.9,77.45A21.29,21.29,0,1,1,76.46,98.58,21.28,21.28,0,0,1,97.9,77.45Zm11.84,21.37-12-.09,8.08-8.88a12,12,0,1,0,3.91,9Z" transform="translate(-26.26 -35.31)"/><path class="cls-2" d="M156.71,77.88A21.29,21.29,0,1,1,135.27,99,21.27,21.27,0,0,1,156.71,77.88Zm11.84,21.37-12-.09,8.08-8.88a12,12,0,1,0,3.92,9Z" transform="translate(-26.26 -35.31)"/><path class="cls-3" d="M171.8,204.55A20.72,20.72,0,0,1,161,207.68a17.75,17.75,0,0,1-1.8-.11,15.44,15.44,0,0,1-12.7-9.35c-1.33-3.39-2.45-10.32,4.81-18.77.36-.43.74-.86,1.12-1.29,1.3-1.47,3.09-3.49,3.21-4.48.1-.8-1.74-3.09-5-4.45-.92-.38-1.86-.72-2.81-1a33.55,33.55,0,0,1-9.49-4.63l-.14-.11a17.63,17.63,0,0,1-6.72-11.89,16.47,16.47,0,0,0-.06-2.09,11.56,11.56,0,0,1,.15-1.43l16.35.12a8,8,0,0,1-.63,2.26,2.12,2.12,0,0,0,.53.6,8.45,8.45,0,0,0,1.56.92c1.07.5,2.36.95,3.69,1.41s2.4.86,3.56,1.35a27.51,27.51,0,0,1,9.27,6.25c.35.36.67.73,1,1.1a17.52,17.52,0,0,1,4.37,13.56c-.72,5.81-4.37,9.95-7,13-.33.38-.67.75-1,1.13a13.48,13.48,0,0,0-1.58,2.2,6.17,6.17,0,0,0,2-.83,7.85,7.85,0,0,1,10.78,2.68,8,8,0,0,1,.48.92A7.89,7.89,0,0,1,171.8,204.55Z" transform="translate(-26.26 -35.31)"/><path class="cls-4" d="M175,194.67a4.51,4.51,0,0,0-.73.07c-4.18.76-7.33,3.12-11.89,3-2.73-.06-5.79-.9-7.14-3.29-1.13-2-.72-4.56.38-6.58a29,29,0,0,1,4.33-5.33c3.14-3.47,5.87-7.82,5.47-12.47a13.85,13.85,0,0,0-4.5-8.54,36.61,36.61,0,0,0-8.15-5.48A8,8,0,0,1,150,154a3.16,3.16,0,0,1-.59-2.05c1.07.5,2.36.95,3.69,1.41s2.4.86,3.56,1.35a27.51,27.51,0,0,1,9.27,6.25c.35.36.67.73,1,1.1a17.52,17.52,0,0,1,4.37,13.56c-.72,5.81-4.37,9.95-7,13-.33.38-.67.75-1,1.13a13.48,13.48,0,0,0-1.58,2.2,6.17,6.17,0,0,0,2-.83,7.85,7.85,0,0,1,10.78,2.68A8,8,0,0,1,175,194.67Z" transform="translate(-26.26 -35.31)"/><path class="cls-3" d="M122.4,214.38a8.13,8.13,0,0,1-2.6.42,7.86,7.86,0,0,1-2.48-15.3c.93-.32,1.89-2.28,1.7-4.09-.28-2.52-2-5.39-5-8.07-.32-.3-.67-.6-1-.9-2.5-2.21-5.92-5.24-7.33-10-1.69-5.7.24-10.85,2.59-14.68a42.11,42.11,0,0,1,4-5.36c3.25-3.83,3.48-5.16,3.47-5.48a8.15,8.15,0,0,1-.3-3l15.76.12a10.4,10.4,0,0,1,.19,1.43,10.44,10.44,0,0,0,.06,2.09c-.22,5.25-3,9.69-5.34,12.68-.7.91-1.35,1.67-1.87,2.3-.34.39-.64.76-.92,1.11-2.38,3-2.56,4.08-2.55,4.36a17.86,17.86,0,0,0,2.67,2.66l1.19,1.07c5.84,5.34,9.3,11.56,10,18C135.64,202.92,130.5,211.6,122.4,214.38Z" transform="translate(-26.26 -35.31)"/><path class="cls-4" d="M122.4,214.38a8.13,8.13,0,0,1-2.6.42,7.82,7.82,0,0,1-6.14-3.05,15,15,0,0,0,4.19-1.12,17.83,17.83,0,0,0,8.78-20.94c-1.32-4.44-4.26-8.17-6.57-12.16-.84-1.46-1.61-3.08-1.3-4.73a6.45,6.45,0,0,1,2.27-3.38,19.64,19.64,0,0,1,2.31-1.77c-2.38,3-2.56,4.08-2.55,4.36a17.86,17.86,0,0,0,2.67,2.66l1.19,1.07c5.84,5.34,9.3,11.56,10,18C135.64,202.92,130.5,211.6,122.4,214.38Z" transform="translate(-26.26 -35.31)"/><path class="cls-3" d="M88,159.34a17.4,17.4,0,0,1-1.44,2.9,18.27,18.27,0,0,1-16.27,8.52c-6.72-.36-11.57-4.2-15.46-7.31a28.74,28.74,0,0,0-5.27-3.64,5.85,5.85,0,0,0-4.43-.33,2.76,2.76,0,0,0-1.68,1.81,1,1,0,0,0,.22.63,7.86,7.86,0,0,1-5.24,14.8,4.83,4.83,0,0,1-.7-.24,16.39,16.39,0,0,1-9.88-17.14,18.41,18.41,0,0,1,11.4-14.44,21.45,21.45,0,0,1,16.81.59,40.54,40.54,0,0,1,8.56,5.68c2.47,2,4.78,3.79,6.5,3.9a2.42,2.42,0,0,0,1.29-.37,2.33,2.33,0,0,0,.79-.73,2.54,2.54,0,0,0,0-2.35,7.75,7.75,0,0,1-1-4.48l.21-.52a15,15,0,0,0,5.38,1l10.69.08v.06a13.87,13.87,0,0,1,.33,1.45A18.16,18.16,0,0,1,88,159.34Z" transform="translate(-26.26 -35.31)"/><path class="cls-4" d="M88,159.34a17.4,17.4,0,0,1-1.44,2.9,18.27,18.27,0,0,1-16.27,8.52c-6.72-.36-11.57-4.2-15.46-7.31a28.74,28.74,0,0,0-5.27-3.64,5.85,5.85,0,0,0-4.43-.33,2.76,2.76,0,0,0-1.68,1.81,1,1,0,0,0,.22.63,7.85,7.85,0,0,1,2,13.24c-3.11-1.55-6-3-7.7-6.91-1.9-4.4-.73-10.19,3.25-12.84,3.25-2.17,7.59-1.95,11.26-.62s6.87,3.65,10.24,5.61,7.14,3.6,11,3.38a12.43,12.43,0,0,0,10.06-6.44c1.54-2.91,1.84-6.3,1.88-9.63V146.5A2.61,2.61,0,0,1,88,147.72c.17.24.35.48.49.71s.29.54.41.81A18.16,18.16,0,0,1,88,159.34Z" transform="translate(-26.26 -35.31)"/><path class="cls-3" d="M106.65,192.46a7.85,7.85,0,0,1-2.84,9.36A24.21,24.21,0,0,1,90,206.15a20.53,20.53,0,0,1-7.55-1.45c-8.37-3.38-13.33-12.57-11.3-20.91,1.6-6.59,6.69-10.64,10.41-13.59l.3-.25a46.32,46.32,0,0,0,6.25-5.75,18.92,18.92,0,0,0,2.59-3.82,9.91,9.91,0,0,0,.59-1.44c.79-2.43.7-4.92-.34-6.4a7.68,7.68,0,0,1-1.38-4.81l16.56.13a23.45,23.45,0,0,1,.48,14.73,27.24,27.24,0,0,1-1.81,4.75c-3.21,6.48-8.45,11.18-13.14,14.93l-.32.23c-2,1.62-4.59,3.65-4.91,5-.16.63.68,2.12,1.91,2.61,1.79.72,4.44.22,6.57-1.24a7.85,7.85,0,0,1,10.92,2A6.77,6.77,0,0,1,106.65,192.46Z" transform="translate(-26.26 -35.31)"/><path class="cls-4" d="M103.3,201.82a24.31,24.31,0,0,1-13.82,4.33,20.49,20.49,0,0,1-7.55-1.46c-8.37-3.37-13.34-12.56-11.31-20.91,1.61-6.59,6.7-10.64,10.41-13.58l.3-.25a45.22,45.22,0,0,0,6.25-5.76,17.31,17.31,0,0,1-2.74,5.44c-2.87,3.84-6.75,7.09-8.35,11.6a13.12,13.12,0,0,0,10.37,17.34,25.18,25.18,0,0,0,8.84-.69c4.44-.91,8-1.88,10.43-5.43A7.84,7.84,0,0,1,103.3,201.82Z" transform="translate(-26.26 -35.31)"/><path class="cls-3" d="M223.14,185.79c-6.77,7.22-16.9,7.62-22.95,7.85l-.38,0a7.86,7.86,0,0,1-7.77-7.4.44.44,0,0,1,0-.16,7.86,7.86,0,0,1,7.55-8.16c4.93-.2,9.94-.58,12.11-2.9,1.42-1.52,1.51-4.66.17-6.59a8.15,8.15,0,0,0-7.87-2.89,29.6,29.6,0,0,0-5.72,2.05c-3.44,1.49-7.33,3.17-12,3.41a21.46,21.46,0,0,1-16.6-7,23.86,23.86,0,0,1-2-2.49,4.91,4.91,0,0,1-.34-.5,21.17,21.17,0,0,1-3.69-12.53,2.35,2.35,0,0,1,0-.26l12.08.08a15.46,15.46,0,0,0,3.69-.41,8.09,8.09,0,0,1-.06.85,6.56,6.56,0,0,0,6.13,6.52l.47,0a24.44,24.44,0,0,0,6.12-2.1,41.93,41.93,0,0,1,9.09-3.07,23.82,23.82,0,0,1,23.61,9.35C230.36,167.52,229.68,178.85,223.14,185.79Z" transform="translate(-26.26 -35.31)"/><path class="cls-4" d="M216.28,180.23a16.14,16.14,0,0,1-5.3,3.57A33.74,33.74,0,0,1,192,186.26a.44.44,0,0,1,0-.16,7.86,7.86,0,0,1,7.55-8.16c4.93-.2,9.94-.58,12.11-2.9,1.42-1.52,1.51-4.66.17-6.59a8.15,8.15,0,0,0-7.87-2.89,29.6,29.6,0,0,0-5.72,2.05c-3.44,1.49-7.33,3.17-12,3.41a21.46,21.46,0,0,1-16.6-7,23.86,23.86,0,0,1-2-2.49,4.91,4.91,0,0,1-.34-.5,21.17,21.17,0,0,1-3.69-12.53.87.87,0,0,1,.18-.26,4.33,4.33,0,0,1,.68-.74c.08.26.17.49.25.74,1.3,4,2.69,7.92,5.05,11.33,2.52,3.63,6.34,6.6,10.72,7,7.29.75,13.43-5.31,20.57-7,5.52-1.27,11.83.49,15.37,4.9S220.11,176.06,216.28,180.23Z" transform="translate(-26.26 -35.31)"/><path class="cls-5" d="M88.57,147.79A18.35,18.35,0,0,1,88,159.34c-5.24.65-12.25-.25-15.59-4.64a2.33,2.33,0,0,0,.79-.73,2.54,2.54,0,0,0,0-2.35,7.75,7.75,0,0,1-1-4.48l.21-.52a15,15,0,0,0,5.38,1l10.69.08Z" transform="translate(-26.26 -35.31)"/><path class="cls-5" d="M105.61,147.85a23.45,23.45,0,0,1,.47,14.73,6.13,6.13,0,0,1-3.55.12c-2.17-.63-3.69-2.61-5.78-3.49a11,11,0,0,0-6-.27c.78-2.44.69-4.92-.35-6.41a7.7,7.7,0,0,1-1.38-4.8Z" transform="translate(-26.26 -35.31)"/><path class="cls-5" d="M165.89,161c-6.34-.66-12.7-3.51-18.85-1.82-3.16.87-5.9,2.86-8.85,4.32a17.63,17.63,0,0,1-6.72-11.89c-.22,5.25-3,9.69-5.34,12.68a13,13,0,0,1-2-1c-2.57-1.54-4.81-4-7.8-4.25-2.8-.26-5.42,1.47-8,2.72a42.11,42.11,0,0,1,4-5.36c3.25-3.83,3.48-5.16,3.47-5.48a8.15,8.15,0,0,1-.3-3l15.76.12a10.4,10.4,0,0,1,.19,1.43,11.56,11.56,0,0,1,.15-1.43l16.35.12a8,8,0,0,1-.63,2.26,2.12,2.12,0,0,0,.53.6,20.14,20.14,0,0,0,5.25,2.33c1.19.44,2.4.86,3.56,1.35A27.51,27.51,0,0,1,165.89,161Z" transform="translate(-26.26 -35.31)"/><path class="cls-5" d="M185.91,155.28c-5.51,3.68-12,6.13-18.63,5.79a21.15,21.15,0,0,1-3.68-12.79l12.08.08a15.46,15.46,0,0,0,3.69-.41,8.09,8.09,0,0,1-.06.85,6.56,6.56,0,0,0,6.13,6.52Z" transform="translate(-26.26 -35.31)"/><path class="cls-3" d="M179.37,148a15.41,15.41,0,0,1-3.69.41l-12.08-.08-15.69-.12L131.56,148h-.34l-15.75-.12-9.86-.07L89,147.73h-.47l-10.69-.08a15,15,0,0,1-5.38-1,15.19,15.19,0,0,1-9.72-14.3L63,100.44a64.12,64.12,0,0,1,128.24.94L191,133.26A15.22,15.22,0,0,1,179.37,148Zm-1.55-48.63a21.28,21.28,0,1,0-21.42,21.14A21.27,21.27,0,0,0,177.82,99.32ZM119,98.89A21.28,21.28,0,1,0,97.59,120,21.28,21.28,0,0,0,119,98.89Z" transform="translate(-26.26 -35.31)"/><path class="cls-5" d="M134.37,37.22a65.62,65.62,0,0,0-6.77-.41A64.12,64.12,0,0,0,63,100.44l-.23,31.88a15.19,15.19,0,0,0,9.72,14.3,15,15,0,0,0,5.38,1l13.53.1a15.23,15.23,0,0,1-15.1-15.33l.23-31.89c-.05-.65-.08-1.29-.08-2a22.22,22.22,0,0,1,.39-4A64.12,64.12,0,0,1,134.37,37.22Z" transform="translate(-26.26 -35.31)"/><path class="cls-6" d="M177.52,95.37a22.32,22.32,0,0,1,.33,3.95c0,.66,0,1.3-.11,2l-.23,31.89a15.2,15.2,0,0,1-9.93,14.15,14.94,14.94,0,0,1-5.4,1l13.53.09a14.65,14.65,0,0,0,5.4-1A15.19,15.19,0,0,0,191,133.26l.23-31.88a64.12,64.12,0,0,0-63.64-64.57,63.13,63.13,0,0,0-6.78.31A64.12,64.12,0,0,1,177.52,95.37Z" transform="translate(-26.26 -35.31)"/><path class="cls-7" d="M156.55,99.16l12,.09a12,12,0,1,1-3.92-9Z" transform="translate(-26.26 -35.31)"/><path class="cls-7" d="M97.75,98.73l12,.09a12,12,0,1,1-3.91-9Z" transform="translate(-26.26 -35.31)"/><path class="cls-8" d="M119,98.89A21.28,21.28,0,1,1,97.9,77.45,21.29,21.29,0,0,1,119,98.89Z" transform="translate(-26.26 -35.31)"/><path class="cls-8" d="M177.82,99.32a21.28,21.28,0,1,1-21.11-21.44A21.28,21.28,0,0,1,177.82,99.32Z" transform="translate(-26.26 -35.31)"/><path class="cls-8" d="M88.57,147.79a18,18,0,0,1-18.25,23c-6.72-.36-11.57-4.2-15.46-7.31a28.74,28.74,0,0,0-5.27-3.64,5.85,5.85,0,0,0-4.43-.33,2.78,2.78,0,0,0-1.68,1.81,1,1,0,0,0,.22.63,7.86,7.86,0,0,1-5.24,14.8,4.83,4.83,0,0,1-.7-.24,16.39,16.39,0,0,1-9.88-17.14,18.41,18.41,0,0,1,11.4-14.44,21.45,21.45,0,0,1,16.81.59,40.54,40.54,0,0,1,8.56,5.68c2.47,2,4.78,3.79,6.5,3.9a2.58,2.58,0,0,0,2.08-1.1,2.54,2.54,0,0,0,0-2.35,7.75,7.75,0,0,1-1-4.48" transform="translate(-26.26 -35.31)"/><path class="cls-8" d="M89,147.73h-.47l-10.69-.08a15,15,0,0,1-5.38-1,15.19,15.19,0,0,1-9.72-14.3L63,100.44a64.12,64.12,0,0,1,128.24.94L191,133.26A15.22,15.22,0,0,1,179.37,148a15.41,15.41,0,0,1-3.69.41l-12.08-.08-15.69-.12" transform="translate(-26.26 -35.31)"/><line class="cls-8" x1="89.21" y1="112.62" x2="79.35" y2="112.54"/><line class="cls-8" x1="105.3" y1="112.73" x2="104.96" y2="112.73"/><path class="cls-8" d="M105.61,147.85a24.51,24.51,0,0,1-1.34,19.48c-3.21,6.49-8.44,11.18-13.14,14.94l-.32.23c-2,1.62-4.58,3.64-4.91,5-.16.63.68,2.11,1.92,2.61,1.79.72,4.43.22,6.56-1.24a7.86,7.86,0,0,1,8.92,12.94,24.31,24.31,0,0,1-13.82,4.33,20.49,20.49,0,0,1-7.55-1.46c-8.37-3.37-13.34-12.56-11.31-20.91,1.61-6.59,6.7-10.64,10.41-13.58l.3-.25c3.36-2.65,7-5.86,8.84-9.57,1.39-2.84,1.5-6.06.25-7.85a7.7,7.7,0,0,1-1.38-4.8Z" transform="translate(-26.26 -35.31)"/><path class="cls-8" d="M131.47,151.56c-.28,6.84-5,12.34-7.21,15-3.25,3.82-3.48,5.16-3.47,5.47a17.86,17.86,0,0,0,2.67,2.66l1.19,1.07c5.84,5.34,9.3,11.56,10,18,1,9.22-4.14,17.9-12.24,20.68a8.13,8.13,0,0,1-2.6.42,7.86,7.86,0,0,1-2.48-15.3c.93-.32,1.89-2.28,1.7-4.09-.28-2.52-2-5.39-5-8.07-.32-.3-.67-.6-1-.9-2.5-2.21-5.92-5.24-7.33-10-2.69-9.12,3.82-16.78,6.59-20,3.25-3.83,3.48-5.16,3.47-5.48a7.93,7.93,0,0,1-.29-3l15.75.12a10.4,10.4,0,0,1,.19,1.43A16.47,16.47,0,0,1,131.47,151.56Z" transform="translate(-26.26 -35.31)"/><path class="cls-8" d="M131.47,151.56a17.58,17.58,0,0,0,6.86,12,33.6,33.6,0,0,0,9.5,4.63c.94.32,1.88.66,2.8,1,3.29,1.36,5.13,3.65,5,4.45-.12,1-1.91,3-3.21,4.48-.38.43-.76.86-1.12,1.29-7.26,8.45-6.14,15.38-4.81,18.77a15.44,15.44,0,0,0,12.7,9.35,17.75,17.75,0,0,0,1.8.11,20.72,20.72,0,0,0,10.78-3.13,7.86,7.86,0,1,0-8.09-13.48,6.17,6.17,0,0,1-2,.83,13.48,13.48,0,0,1,1.58-2.2c.31-.38.65-.75,1-1.13,2.66-3,6.31-7.15,7-13a17.52,17.52,0,0,0-4.37-13.56,27.1,27.1,0,0,0-10.27-7.35c-1.16-.49-2.37-.91-3.56-1.35a20.14,20.14,0,0,1-5.25-2.33,2.12,2.12,0,0,1-.53-.6,7.71,7.71,0,0,0,.63-2.26L131.56,148a11.56,11.56,0,0,0-.15,1.43A10.44,10.44,0,0,0,131.47,151.56Z" transform="translate(-26.26 -35.31)"/><path class="cls-8" d="M179.37,147.94h0a8.09,8.09,0,0,1-.06.85,6.56,6.56,0,0,0,6.13,6.52c1.86-.1,4.05-1,6.59-2.14a41.93,41.93,0,0,1,9.09-3.07,23.82,23.82,0,0,1,23.61,9.35c5.63,8.06,5,19.39-1.59,26.33-6.77,7.22-16.9,7.62-22.95,7.85l-.38,0a7.86,7.86,0,0,1-.24-15.72c4.93-.2,9.94-.58,12.11-2.9,1.42-1.52,1.51-4.66.17-6.59a8.15,8.15,0,0,0-7.87-2.89,29.6,29.6,0,0,0-5.72,2.05c-3.44,1.49-7.33,3.17-12,3.41a21.47,21.47,0,0,1-16.6-7,23.86,23.86,0,0,1-2-2.49,21.22,21.22,0,0,1-4-13.29" transform="translate(-26.26 -35.31)"/><path class="cls-8" d="M116.09,120.76s1.18,12.23,11,12.3,11.19-12.73,11.19-12.73" transform="translate(-26.26 -35.31)"/><circle class="cls-6" cx="71.71" cy="31.09" r="2.88"/><circle class="cls-6" cx="81.44" cy="23.14" r="3.48"/><circle class="cls-6" cx="84.84" cy="35.83" r="3"/><circle class="cls-6" cx="127.63" cy="32.94" r="1.44"/><circle class="cls-6" cx="136.11" cy="26.68" r="4.88"/><ellipse class="cls-9" cx="172.31" cy="131.78" rx="7.67" ry="9.11" transform="translate(13.02 267.81) rotate(-89.58)"/><ellipse class="cls-9" cx="81.5" cy="131.11" rx="7.67" ry="9.11" transform="translate(-76.47 176.34) rotate(-89.58)"/><circle class="cls-6" cx="125.69" cy="25.71" r="2.89"/></g></g></svg>